<?xml version="1.0" encoding="UTF-8" standalone="no"?><!DOCTYPE svg PUBLIC "-//W3C//DTD SVG 1.1//EN" "http://www.w3.org/Graphics/SVG/1.1/DTD/svg11.dtd"><svg width="100%" height="100%" viewBox="0 0 494 127" version="1.1" xmlns="http://www.w3.org/2000/svg" xmlns:xlink="http://www.w3.org/1999/xlink" xml:space="preserve" xmlns:serif="http://www.serif.com/" style="fill-rule:evenodd;clip-rule:evenodd;stroke-linejoin:round;stroke-miterlimit:1.41421;"><g id="numerati-logo-dark-bg"><circle cx="472.467" cy="16.915" r="10" style="fill:url(#_Linear1);"/><g id="Curves-umerati"><path d="M133.637,42.654l15.041,0l0,26.861c0,4.117 0.158,7.248 0.475,9.394c0.317,2.146 0.791,3.765 1.425,4.855c0.633,1.091 1.53,2.006 2.691,2.745c1.161,0.739 2.762,1.108 4.803,1.108c1.337,0 2.621,-0.264 3.852,-0.792c1.232,-0.527 2.604,-1.451 4.117,-2.77c1.512,-1.32 2.594,-2.63 3.245,-3.932c0.651,-1.302 0.976,-2.815 0.976,-4.539l0,-19.79c0,-2.005 -0.052,-3.518 -0.158,-4.538c-0.105,-1.021 -0.281,-1.839 -0.528,-2.454c-0.246,-0.616 -0.536,-1.117 -0.87,-1.504c-0.335,-0.387 -0.81,-0.739 -1.425,-1.056c-0.616,-0.316 -1.61,-0.651 -2.982,-1.003l0,-2.585l15.041,0l0,36.044c0,2.709 0.052,4.662 0.158,5.858c0.105,1.196 0.334,2.146 0.686,2.85c0.352,0.703 0.897,1.275 1.636,1.715c0.739,0.44 2.058,0.853 3.958,1.24l0,2.744l-12.085,0.528l-3.219,0l0.316,-8.655l-0.791,-0.211c-2.921,3.167 -5.709,5.489 -8.365,6.966c-2.656,1.478 -5.321,2.217 -7.995,2.217c-3.202,0 -5.841,-0.633 -7.916,-1.9c-2.076,-1.267 -3.624,-3.158 -4.645,-5.673c-1.02,-2.516 -1.53,-6.06 -1.53,-10.634l0,-19.949c0,-2.955 -0.114,-4.987 -0.343,-6.095c-0.229,-1.108 -0.668,-1.988 -1.319,-2.639c-0.651,-0.651 -2.067,-1.258 -4.249,-1.821l0,-2.585Z" style="fill:#f2f2f2;fill-rule:nonzero;"/><path d="M208.84,50.781l0.739,0.211c2.111,-2.111 3.844,-3.703 5.198,-4.776c1.355,-1.073 2.665,-1.935 3.932,-2.586c1.266,-0.651 2.454,-1.117 3.562,-1.399c1.108,-0.281 2.243,-0.422 3.404,-0.422c3.518,0 6.386,0.809 8.602,2.428c2.217,1.618 3.747,4.099 4.592,7.441c2.638,-2.674 4.776,-4.644 6.412,-5.911c1.636,-1.266 3.307,-2.243 5.013,-2.929c1.706,-0.686 3.545,-1.029 5.515,-1.029c2.357,0 4.389,0.343 6.095,1.029c1.707,0.686 3.149,1.742 4.328,3.167c1.178,1.425 2.04,3.21 2.586,5.356c0.545,2.146 0.818,5.031 0.818,8.655l0,19.896c0,2.674 0.088,4.521 0.264,5.541c0.176,1.02 0.431,1.812 0.765,2.375c0.334,0.563 0.835,1.047 1.504,1.451c0.668,0.405 1.794,0.818 3.377,1.241l0,2.585l-20.74,0l0,-2.585c1.372,-0.423 2.358,-0.792 2.956,-1.109c0.598,-0.316 1.099,-0.756 1.504,-1.319c0.404,-0.563 0.721,-1.434 0.95,-2.612c0.228,-1.179 0.343,-2.965 0.343,-5.357l0,-13.827c0,-2.99 -0.08,-5.462 -0.238,-7.414c-0.158,-1.953 -0.404,-3.51 -0.739,-4.671c-0.334,-1.161 -0.739,-2.076 -1.213,-2.744c-0.475,-0.669 -1.012,-1.249 -1.61,-1.742c-0.598,-0.492 -1.302,-0.879 -2.111,-1.161c-0.809,-0.281 -1.882,-0.422 -3.219,-0.422c-1.408,0 -2.718,0.281 -3.932,0.844c-1.214,0.563 -2.533,1.513 -3.958,2.85c-1.425,1.337 -2.454,2.683 -3.087,4.037c-0.634,1.355 -0.95,2.947 -0.95,4.776l0,19.263c0,2.674 0.088,4.521 0.264,5.541c0.176,1.02 0.431,1.812 0.765,2.375c0.334,0.563 0.836,1.047 1.504,1.451c0.668,0.405 1.794,0.818 3.378,1.241l0,2.585l-20.741,0l0,-2.585c1.372,-0.423 2.358,-0.792 2.956,-1.109c0.598,-0.316 1.099,-0.756 1.504,-1.319c0.404,-0.563 0.721,-1.434 0.95,-2.612c0.228,-1.179 0.343,-2.965 0.343,-5.357l0,-13.827c0,-3.131 -0.088,-5.682 -0.264,-7.652c-0.176,-1.97 -0.449,-3.553 -0.818,-4.75c-0.37,-1.196 -0.845,-2.163 -1.425,-2.902c-0.581,-0.739 -1.17,-1.302 -1.768,-1.689c-0.598,-0.387 -1.302,-0.677 -2.111,-0.871c-0.809,-0.193 -1.724,-0.29 -2.744,-0.29c-1.443,0 -2.797,0.325 -4.064,0.976c-1.266,0.651 -2.559,1.592 -3.879,2.824c-1.319,1.231 -2.313,2.515 -2.981,3.852c-0.669,1.337 -1.003,2.78 -1.003,4.328l0,19.79c0,2.005 0.053,3.536 0.158,4.591c0.106,1.056 0.273,1.883 0.502,2.481c0.228,0.598 0.519,1.082 0.87,1.451c0.352,0.369 0.854,0.721 1.504,1.055c0.651,0.335 1.628,0.678 2.929,1.03l0,2.585l-20.687,0l0,-2.585c1.337,-0.423 2.296,-0.792 2.876,-1.109c0.581,-0.316 1.082,-0.756 1.504,-1.319c0.422,-0.563 0.739,-1.425 0.95,-2.586c0.211,-1.161 0.317,-2.973 0.317,-5.436l0,-23.009c0,-2.252 -0.035,-4.064 -0.106,-5.436c-0.07,-1.372 -0.316,-2.471 -0.739,-3.298c-0.422,-0.827 -1.064,-1.443 -1.926,-1.847c-0.862,-0.405 -2.084,-0.748 -3.668,-1.029l0,-2.797l12.349,-0.475l3.22,0l-0.581,8.602Z" style="fill:#f2f2f2;fill-rule:nonzero;"/><path d="M323.532,93.105l-41.836,0l0,-1.517l21.451,-25.717l-21.451,-26.906l0,-1.477l40.564,0l1.272,13.864l-1.682,0c-0.41,-3.774 -1.456,-6.467 -3.138,-8.081c-1.681,-1.613 -4.108,-2.419 -7.28,-2.419l-19.113,0l17.514,22.025l-19.729,23.748l21.738,0c3.637,0 6.365,-0.684 8.183,-2.051c1.818,-1.367 3.329,-3.937 4.532,-7.711l1.518,0.328l-2.543,15.914Z" style="fill:#f2f2f2;fill-rule:nonzero;"/><path d="M348.478,51.414l0.739,0.158c1.935,-2.357 3.729,-4.213 5.383,-5.567c1.653,-1.355 3.439,-2.402 5.356,-3.14c1.918,-0.739 4.09,-1.109 6.518,-1.109c2.04,0 3.887,0.106 5.541,0.317l0,12.138l-5.963,0c-0.845,-1.9 -1.742,-3.281 -2.692,-4.143c-0.95,-0.862 -2.252,-1.293 -3.905,-1.293c-1.267,0 -2.524,0.37 -3.773,1.109c-1.249,0.738 -2.454,1.811 -3.615,3.219c-1.162,1.407 -1.962,2.726 -2.402,3.958c-0.439,1.231 -0.659,2.691 -0.659,4.38l0,18.471c0,3.202 0.193,5.409 0.58,6.623c0.387,1.214 1.029,2.102 1.926,2.665c0.898,0.563 2.243,1.003 4.038,1.32l0,2.585l-21.268,0l0,-2.585c1.337,-0.423 2.295,-0.792 2.876,-1.109c0.58,-0.316 1.082,-0.756 1.504,-1.319c0.422,-0.563 0.739,-1.425 0.95,-2.586c0.211,-1.161 0.317,-2.973 0.317,-5.436l0,-23.009c0,-2.252 -0.036,-4.064 -0.106,-5.436c-0.07,-1.372 -0.317,-2.471 -0.739,-3.298c-0.422,-0.827 -1.064,-1.443 -1.926,-1.847c-0.862,-0.405 -2.085,-0.748 -3.668,-1.029l0,-2.745l12.349,-0.527l3.219,0l-0.58,9.235Z" style="fill:#f2f2f2;fill-rule:nonzero;"/><path d="M407.585,85.559l-0.792,-0.211c-3.061,3.131 -5.937,5.347 -8.628,6.649c-2.692,1.302 -5.551,1.953 -8.576,1.953c-2.674,0 -5.031,-0.519 -7.072,-1.557c-2.041,-1.038 -3.606,-2.498 -4.697,-4.38c-1.09,-1.883 -1.636,-4.055 -1.636,-6.518c0,-5.137 2.542,-9.103 7.626,-11.9c5.084,-2.797 12.71,-4.425 22.878,-4.882l0,-3.43c0,-3.659 -0.352,-6.544 -1.056,-8.655c-0.704,-2.111 -1.812,-3.659 -3.325,-4.644c-1.513,-0.985 -3.536,-1.478 -6.069,-1.478c-2.744,0 -4.952,0.721 -6.623,2.164c-1.671,1.442 -2.929,3.606 -3.773,6.491l-6.914,0l0,-6.861c3.378,-1.759 6.193,-3.052 8.444,-3.879c2.252,-0.826 4.504,-1.477 6.755,-1.952c2.252,-0.475 4.539,-0.713 6.861,-0.713c3.483,0 6.28,0.555 8.391,1.663c2.111,1.108 3.694,2.806 4.75,5.092c1.055,2.287 1.583,5.735 1.583,10.344l0,18.365c0,2.604 0.017,4.442 0.053,5.515c0.035,1.073 0.14,2.067 0.316,2.982c0.176,0.915 0.44,1.645 0.792,2.19c0.352,0.546 0.871,1.012 1.557,1.399c0.686,0.387 1.803,0.791 3.351,1.214l0,2.585l-14.46,0l0.264,-7.546Zm-0.897,-16.518c-7.143,0.07 -12.49,1.02 -16.044,2.849c-3.553,1.83 -5.33,4.592 -5.33,8.286c0,2.005 0.405,3.588 1.214,4.749c0.809,1.161 1.829,1.962 3.061,2.402c1.231,0.439 2.691,0.659 4.38,0.659c2.392,0 4.565,-0.58 6.518,-1.741c1.952,-1.161 3.474,-2.639 4.565,-4.433c1.09,-1.795 1.636,-3.571 1.636,-5.33l0,-7.441Z" style="fill:#f2f2f2;fill-rule:nonzero;"/><path d="M426.689,45.292c1.759,-0.281 3.184,-0.774 4.275,-1.477c1.09,-0.704 1.943,-1.61 2.559,-2.718c0.616,-1.109 1.1,-2.498 1.451,-4.169c0.352,-1.672 0.722,-4.108 1.109,-7.31l7.494,0l0,13.036l17.045,0l0,5.33l-17.045,0l0,23.484c0,3.413 0.14,6.131 0.422,8.154c0.281,2.023 0.809,3.606 1.583,4.749c0.774,1.144 1.654,1.962 2.639,2.454c0.985,0.493 2.251,0.739 3.799,0.739c1.408,0 2.727,-0.29 3.958,-0.871c1.232,-0.58 2.446,-1.416 3.642,-2.506l2.375,2.849c-2.498,2.428 -4.864,4.187 -7.098,5.278c-2.235,1.09 -4.548,1.636 -6.94,1.636c-4.539,0 -7.916,-1.346 -10.133,-4.037c-2.216,-2.692 -3.325,-6.905 -3.325,-12.64l0,-29.289l-7.81,0l0,-2.692Z" style="fill:#f2f2f2;fill-rule:nonzero;"/><path d="M490.915,81.97l2.111,0c-0.387,4.609 -1.531,7.89 -3.431,9.842c-1.899,1.953 -4.239,2.929 -7.019,2.929c-1.935,0 -3.667,-0.501 -5.198,-1.504c-1.53,-1.002 -2.656,-2.418 -3.377,-4.248c-0.722,-1.829 -1.065,-4.996 -1.029,-9.499l0,-22.271c0,-2.216 -0.159,-3.712 -0.475,-4.486c-0.317,-0.774 -0.845,-1.407 -1.584,-1.899c-0.387,-0.282 -1.178,-0.423 -2.374,-0.423c-0.423,0 -1.443,0.264 -3.061,0.792l-0.634,-1.794l14.935,-6.069l2.006,0l0,38.261c0,3.061 0.396,5.092 1.187,6.095c0.792,1.003 1.891,1.504 3.299,1.504c1.09,0 2.031,-0.466 2.823,-1.398c0.792,-0.933 1.399,-2.877 1.821,-5.832Z" style="fill:#f2f2f2;fill-rule:nonzero;"/></g><path d="M64.886,0c35.811,0 64.886,28.281 64.886,63.114c0,34.834 -29.075,63.114 -64.886,63.114c-35.812,0 -64.886,-28.28 -64.886,-63.114c0,-34.833 29.074,-63.114 64.886,-63.114Zm0,5.117c32.908,0 59.625,25.988 59.625,57.997c0,32.01 -26.717,57.997 -59.625,57.997c-32.908,0 -59.625,-25.987 -59.625,-57.997c0,-32.009 26.717,-57.997 59.625,-57.997Z" style="fill:url(#_Linear2);"/><path d="M45.424,78.293l0,-35.359c0,-3.061 -0.193,-5.163 -0.58,-6.306c-0.387,-1.144 -0.906,-1.962 -1.557,-2.454c-0.651,-0.493 -1.434,-0.739 -2.349,-0.739c-1.231,0 -2.304,0.51 -3.219,1.53c-0.914,1.02 -1.618,3.131 -2.111,6.333l-2.163,0c0.563,-4.644 1.811,-7.934 3.747,-9.869c1.935,-1.935 4.433,-2.902 7.493,-2.902c2.921,0 5.155,0.835 6.703,2.506c1.548,1.672 2.445,4.759 2.691,9.262c4.539,-5.136 8.048,-8.382 10.529,-9.736c2.48,-1.355 5.04,-2.032 7.678,-2.032c3.307,0 6.025,0.809 8.154,2.427c2.128,1.619 3.562,3.703 4.301,6.254c0.739,2.551 1.108,7.028 1.108,13.431l0,32.034c0,5.312 0.123,9.077 0.37,11.293c0.246,2.217 0.774,4.768 1.583,7.653l-9.025,0c-0.774,-3.343 -1.231,-5.524 -1.372,-6.544c-0.316,-2.709 -0.475,-5.278 -0.475,-7.705l0,-38.684c0,-4.82 -0.439,-8.004 -1.319,-9.552c-1.513,-2.744 -3.888,-4.116 -7.125,-4.116c-2.181,0 -4.353,0.642 -6.517,1.926c-2.164,1.284 -4.794,3.686 -7.89,7.204l0,34.145l-8.655,0Z" style="fill:#f2f2f2;fill-rule:nonzero;"/></g><defs><linearGradient id="_Linear1" x1="0" y1="0" x2="1" y2="0" gradientUnits="userSpaceOnUse" gradientTransform="matrix(17.347,-11.4171,11.4171,17.347,464.054,22.3914)"><stop offset="0" style="stop-color:#fddd5b;stop-opacity:1"/><stop offset="1" style="stop-color:#ddb203;stop-opacity:1"/></linearGradient><linearGradient id="_Linear2" x1="0" y1="0" x2="1" y2="0" gradientUnits="userSpaceOnUse" gradientTransform="matrix(77.9515,91.2387,-91.2387,77.9515,28.4602,14.244)"><stop offset="0" style="stop-color:#ff9705;stop-opacity:1"/><stop offset="0.51" style="stop-color:#fecb45;stop-opacity:1"/><stop offset="1" style="stop-color:#fddd5b;stop-opacity:1"/></linearGradient></defs></svg>