<?xml version="1.0" encoding="UTF-8" standalone="no"?><!DOCTYPE svg PUBLIC "-//W3C//DTD SVG 1.1//EN" "http://www.w3.org/Graphics/SVG/1.1/DTD/svg11.dtd"><svg width="100%" height="100%" viewBox="0 0 500 127" version="1.1" xmlns="http://www.w3.org/2000/svg" xmlns:xlink="http://www.w3.org/1999/xlink" xml:space="preserve" xmlns:serif="http://www.serif.com/" style="fill-rule:evenodd;clip-rule:evenodd;stroke-linejoin:round;stroke-miterlimit:1.41421;"><g><circle cx="482.467" cy="20.915" r="8" style="fill:url(#_Linear1);"/><path d="M64.886,0c35.811,0 64.886,28.281 64.886,63.114c0,34.834 -29.075,63.114 -64.886,63.114c-35.812,0 -64.886,-28.28 -64.886,-63.114c0,-34.833 29.074,-63.114 64.886,-63.114Zm0,5.117c32.908,0 59.625,25.988 59.625,57.997c0,32.01 -26.717,57.997 -59.625,57.997c-32.908,0 -59.625,-25.987 -59.625,-57.997c0,-32.009 26.717,-57.997 59.625,-57.997Z" style="fill:url(#_Linear2);"/><text x="31.07px" y="78.293px" style="font-family:'SymbolMT', 'Symbol';font-size:108.081px;fill:#f2f2f2;">h</text><g transform="matrix(0.5,0,0,0.5,-288.721,-11.5139)"><text x="850.581px" y="204.387px" style="font-family:'Cambria', serif;font-size:216.162px;fill:#f2f2f2;">um</text><text x="1149.81px" y="204.387px" style="font-family:'SymbolMT', 'Symbol';font-size:168px;fill:#f2f2f2;">S</text><text x="1249.23px" y="204.387px" style="font-family:'Cambria', serif;font-size:216.162px;fill:#f2f2f2;">r<tspan x="1334.94px 1440.48px " y="204.387px 204.387px ">at</tspan></text><text x="1513.63px" y="204.387px" style="font-family:'SymbolMT', 'Symbol';font-size:216.162px;fill:#f2f2f2;">i</text></g></g><defs><linearGradient id="_Linear1" x1="0" y1="0" x2="1" y2="0" gradientUnits="userSpaceOnUse" gradientTransform="matrix(12.8443,13.7301,-13.7301,12.8443,477.125,12.4723)"><stop offset="0" style="stop-color:#fddd5b;stop-opacity:1"/><stop offset="1" style="stop-color:#ddb203;stop-opacity:1"/></linearGradient><linearGradient id="_Linear2" x1="0" y1="0" x2="1" y2="0" gradientUnits="userSpaceOnUse" gradientTransform="matrix(77.9515,91.2387,-91.2387,77.9515,28.4602,14.244)"><stop offset="0" style="stop-color:#ff9705;stop-opacity:1"/><stop offset="0.51" style="stop-color:#fecb45;stop-opacity:1"/><stop offset="1" style="stop-color:#fddd5b;stop-opacity:1"/></linearGradient></defs></svg>