<?xml version="1.0" encoding="UTF-8" standalone="no"?><!DOCTYPE svg PUBLIC "-//W3C//DTD SVG 1.1//EN" "http://www.w3.org/Graphics/SVG/1.1/DTD/svg11.dtd"><svg width="100%" height="100%" viewBox="0 0 503 127" version="1.1" xmlns="http://www.w3.org/2000/svg" xmlns:xlink="http://www.w3.org/1999/xlink" xml:space="preserve" xmlns:serif="http://www.serif.com/" style="fill-rule:evenodd;clip-rule:evenodd;stroke-linejoin:round;stroke-miterlimit:1.41421;"><g><text x="337.476px" y="90.91px" style="font-family:'Cambria', serif;font-size:108.081px;fill:#f2f2f2;">r<tspan x="380.328px 433.102px " y="90.91px 90.91px ">at</tspan></text><circle cx="489.467" cy="25.415" r="10" style="fill:url(#_Linear1);"/><path id="i-no-dot" d="M483.674,89.466c1.278,-0.393 2.188,-0.737 2.728,-1.032c0.541,-0.295 1,-0.705 1.377,-1.229c0.377,-0.525 0.672,-1.328 0.885,-2.41c0.213,-1.081 0.32,-2.77 0.32,-5.064l0,-21.438c0,-2.098 -0.033,-3.786 -0.099,-5.064c-0.065,-1.279 -0.295,-2.303 -0.688,-3.073c-0.393,-0.771 -0.991,-1.344 -1.795,-1.721c-0.803,-0.377 -1.942,-0.697 -3.417,-0.959l0,-2.606l11.457,-0.443l2.999,0l0,35.156c0,2.819 0.131,4.778 0.393,5.876c0.263,1.098 0.762,1.934 1.5,2.508c0.737,0.573 1.942,1.073 3.614,1.499l0,2.41l-19.274,0l0,-2.41Z" style="fill:#f2f2f2;fill-rule:nonzero;"/><path d="M330.718,90.967l-41.836,0l0,-1.518l21.451,-25.716l-21.451,-26.907l0,-1.476l40.565,0l1.271,13.863l-1.682,0c-0.41,-3.773 -1.456,-6.467 -3.137,-8.08c-1.682,-1.613 -4.109,-2.42 -7.281,-2.42l-19.113,0l17.514,22.025l-19.729,23.749l21.739,0c3.636,0 6.364,-0.684 8.182,-2.051c1.819,-1.367 3.329,-3.938 4.532,-7.711l1.518,0.328l-2.543,15.914Z" style="fill:#f2f2f2;fill-rule:nonzero;"/><text x="136.57px" y="90.68px" style="font-family:'Cambria', serif;font-size:108.081px;fill:#f2f2f2;">um</text><path d="M64.886,0c35.811,0 64.886,28.281 64.886,63.114c0,34.834 -29.075,63.114 -64.886,63.114c-35.812,0 -64.886,-28.28 -64.886,-63.114c0,-34.833 29.074,-63.114 64.886,-63.114Zm0,5.117c32.908,0 59.625,25.988 59.625,57.997c0,32.01 -26.717,57.997 -59.625,57.997c-32.908,0 -59.625,-25.987 -59.625,-57.997c0,-32.009 26.717,-57.997 59.625,-57.997Z" style="fill:url(#_Linear2);"/><path d="M45.424,78.293l0,-35.359c0,-3.061 -0.193,-5.163 -0.58,-6.306c-0.387,-1.144 -0.906,-1.962 -1.557,-2.454c-0.651,-0.493 -1.434,-0.739 -2.349,-0.739c-1.231,0 -2.304,0.51 -3.219,1.53c-0.914,1.02 -1.618,3.131 -2.111,6.333l-2.163,0c0.563,-4.644 1.811,-7.934 3.747,-9.869c1.935,-1.935 4.433,-2.902 7.493,-2.902c2.921,0 5.155,0.835 6.703,2.506c1.548,1.672 2.445,4.759 2.691,9.262c4.539,-5.136 8.048,-8.382 10.529,-9.736c2.48,-1.355 5.04,-2.032 7.678,-2.032c3.307,0 6.025,0.809 8.154,2.427c2.128,1.619 3.562,3.703 4.301,6.254c0.739,2.551 1.108,7.028 1.108,13.431l0,32.034c0,5.312 0.123,9.077 0.37,11.293c0.246,2.217 0.774,4.768 1.583,7.653l-9.025,0c-0.774,-3.343 -1.231,-5.524 -1.372,-6.544c-0.316,-2.709 -0.475,-5.278 -0.475,-7.705l0,-38.684c0,-4.82 -0.439,-8.004 -1.319,-9.552c-1.513,-2.744 -3.888,-4.116 -7.125,-4.116c-2.181,0 -4.353,0.642 -6.517,1.926c-2.164,1.284 -4.794,3.686 -7.89,7.204l0,34.145l-8.655,0Z" style="fill:#f2f2f2;fill-rule:nonzero;"/></g><defs><linearGradient id="_Linear1" x1="0" y1="0" x2="1" y2="0" gradientUnits="userSpaceOnUse" gradientTransform="matrix(17.347,-11.4171,11.4171,17.347,481.054,30.8914)"><stop offset="0" style="stop-color:#fddd5b;stop-opacity:1"/><stop offset="1" style="stop-color:#ddb203;stop-opacity:1"/></linearGradient><linearGradient id="_Linear2" x1="0" y1="0" x2="1" y2="0" gradientUnits="userSpaceOnUse" gradientTransform="matrix(77.9515,91.2387,-91.2387,77.9515,28.4602,14.244)"><stop offset="0" style="stop-color:#ff9705;stop-opacity:1"/><stop offset="0.51" style="stop-color:#fecb45;stop-opacity:1"/><stop offset="1" style="stop-color:#fddd5b;stop-opacity:1"/></linearGradient></defs></svg>